.
 
http://www.scenetime.com    -   SceneTime [ We been having it ] !!!


How come you press harder on a remote control when you know the battery is dead? so you better seed to get speed ;)

        Seed back for speed


...................................NFO:.................................................








































          
          
              
              
                    
                    
                    
                    

Sucker.Punch.2011.DVDRip.XviD.AC3-SiC.avi

Poster:
[img]http://leetleech.org/images/63758406946432267412.jpg[/img]

IMDB Link: 
http://www.imdb.com/title/tt0978764/

Description:
A young girl is institutionalized by her abusive stepfather. Retreating to an 
alternative reality as a coping strategy, she envisions a plan 
which will help her escape from the mental facility. 

Mediainfo:
General
Complete name                    : Sucker.Punch.2011.DVDRip.XviD.AC3-SiC.avi
Format                           : AVI
Format/Info                      : Audio Video Interleave
File size                        : 1.49 GiB
Duration                         : 1h 49mn
Overall bit rate                 : 1 942 Kbps

Video
ID                               : 0
Format                           : MPEG-4 Visual
Format profile                   : Advanced Simple@L5
Format settings, BVOP            : 1
Format settings, QPel            : No
Format settings, GMC             : No warppoints
Format settings, Matrix          : Default (H.263)
Codec ID                         : XVID
Codec ID/Hint                    : XviD
Duration                         : 1h 49mn
Bit rate                         : 1 550 Kbps
Width                            : 720 pixels
Height                           : 304 pixels
Display aspect ratio             : 2.35:1
Frame rate                       : 23.976 fps
Color space                      : YUV
Chroma subsampling               : 4:2:0
Bit depth                        : 8 bits
Scan type                        : Progressive
Compression mode                 : Lossy
Bits/(Pixel*Frame)               : 0.295
Stream size                      : 1.19 GiB (80%)
Writing library                  : XviD 1.2.1 (UTC 2008-12-04)

Audio
ID                               : 1
Format                           : AC-3
Format/Info                      : Audio Coding 3
Mode extension                   : CM (complete main)
Codec ID                         : 2000
Duration                         : 1h 49mn
Bit rate mode                    : Constant
Bit rate                         : 384 Kbps
Channel(s)                       : 6 channels
Channel positions                : Front: L C R, Side: L R, LFE
Sampling rate                    : 48.0 KHz
Bit depth                        : 16 bits
Compression mode                 : Lossy
Stream size                      : 301 MiB (20%)
Alignment                        : Aligned on interleaves
Interleave, duration             : 64 ms (1.53 video frames)
Interleave, preload duration     : 192 ms
Title                            : VTS_01_1 T80 3_2ch 384Kbps DELAY 0ms

Screenshots:
[img]http://leetleech.org/images/42514283719501896101.png[/img]
[img]http://leetleech.org/images/94440256128949402449.png[/img]
[img]http://leetleech.org/images/90444504910793377137.png[/img]
[img]http://leetleech.org/images/76406547994283435188.png[/img]
[img]http://leetleech.org/images/94905215466686004041.png[/img]

Note: N/A

Encoder: TheSL

Enjoy!

Respects to CaptainHomey, Cyanide, CM8, Rx, Pirate666, THC, ELEKTRI4KA, Killerhz, 
XtremE, PA, YeFsTe and everyone in the struggle...